<?xml version="1.0" standalone="no"?>
<!DOCTYPE svg PUBLIC "-//W3C//DTD SVG 1.1//EN" "http://www.w3.org/Graphics/SVG/1.1/DTD/svg11.dtd">
<svg xmlns="http://www.w3.org/2000/svg">
<metadata>Generated by Fontastic.me</metadata>
<defs>
<font id="ratex-ui" horiz-adv-x="512">
<font-face font-family="ratex-ui" units-per-em="512" ascent="480" descent="-32"/>
<missing-glyph horiz-adv-x="512" />

<glyph glyph-name="arrow" unicode="&#97;" d="M503 266l-121 121-18-17 101-101-465 0 0-25 464 0-102-102 18-17 132 132z"/>
<glyph glyph-name="btn" unicode="&#98;" d="M512 256c0-141-115-256-256-256-141 0-256 115-256 256 0 141 115 256 256 256 141 0 256-115 256-256z m-192 9l-55 0 0 55-18 0 0-55-55 0 0-18 55 0 0-55 18 0 0 55 55 0z"/>
<glyph glyph-name="burger-menu" unicode="&#99;" d="M490 410l22 0 0 34-512 0 0-34z m0-171l22 0 0 34-512 0 0-34z m0-171l22 0 0 34-512 0 0-34z"/>
<glyph glyph-name="calendar" unicode="&#100;" d="M410 422l0 52-26 0 0-52-256 0 0 52-26 0 0-52-102 0 0-384 512 0 0 384z m76-358l-460 0 0 333 460 0z m-88 230l12 0 0 26-308 0 0-26z m0-76l12 0 0 25-308 0 0-25z m0-77l12 0 0 25-308 0 0-25z"/>
<glyph glyph-name="favourite" unicode="&#101;" d="M414 12l-158 84-158-84 30 177-128 125 177 25 79 161 79-161 177-25-128-125z m-158 119l117-62-22 130 94 92-130 19-59 119-58-118-131-19 95-92-23-130z"/>
<glyph glyph-name="fb" unicode="&#102;" d="M0 427l512 0 0-342-512 0z m222-265l37 0 0 90 24 0 4 31-28 0 0 15c0 8 0 12 12 12l15 0 0 31-24 0c-30 0-40-15-40-40l0-18-19 0 0-31 19 0z"/>
<glyph glyph-name="git-hub" unicode="&#103;" d="M0 427l512 0 0-342-512 0z m281-265l-49 0c0 0 0 15 0 25-35-7-44 19-44 19-6 12-13 19-13 19-12 7 0 6 0 6 13 0 19-12 19-12 11-19 31-16 38-13 0 6 2 16 6 19-28 3-50 19-50 50 0 31 6 37 12 44-1 3-6 14 1 31 0 0 12 0 24-19 6 6 25 7 32 7 6 0 24 0 31-7 12 19 24 19 24 19 7-17 2-28 1-31 6-7 12-13 12-44 0-31-23-47-50-50 4-3 6-14 6-19z"/>
<glyph glyph-name="google" unicode="&#104;" d="M0 427l512 0 0-342-512 0z m212-263c-51 0-93 41-93 92 0 51 42 92 93 92 25 0 46-9 62-24l-26-24c-6 7-18 14-36 14-32 0-58-26-58-58 0-32 26-58 58-58 36 0 50 26 52 39l-52 0 0 32 87 0c1-4 1-9 1-15 0-53-35-90-88-90z m198 79l-27 0 0-27-26 0 0 27-27 0 0 26 27 0 0 26 26 0 0-26 27 0z"/>
<glyph glyph-name="graph" unicode="&#105;" d="M0 448l0-384 512 0 0 384z m486-358l-460 0 0 332 460 0z m-73 287l-145-149-63 60-10 9-9-10-108-123 19-17 100 114 63-60 9-8 9 8 154 158z"/>
<glyph glyph-name="green-arrow-logo" unicode="&#106;" d="M154 416l-104-104-50 49 0-196 200 0-50 49 206 202z m158-69l50-49-206-202 202 0 104 104 50-49 0 196z"/>
<glyph glyph-name="icon-search" unicode="&#107;" d="M500 36l-143 143c29 35 47 81 47 131 0 111-90 202-202 202-111 0-202-91-202-202 0-112 91-202 202-202 50 0 96 18 131 47l143-143 12-12 24 24z m-466 274c0 93 75 168 168 168 93 0 169-75 169-168 0-93-76-169-169-169-93 0-168 76-168 169z"/>
<glyph glyph-name="logo" unicode="&#108;" d="M20 257l-12 0 0 29 11 0c7 0 12-1 15-3 3-3 4-6 4-11 0-5-1-9-4-12-3-2-8-3-14-3z m22 2c2 4 4 8 4 13 0 7-3 12-7 16-5 3-11 5-20 5l-18 0 0-74 7 0 0 31 16 0 18-31 9 0-20 33c5 2 8 4 11 7z m293-5l47 0 0 7-47 0z m-109 32l23 0 0-67 7 0 0 67 23 0 0 7-53 0z m261-29l22 36-7 0-19-30-19 30-8 0 22-36-24-38 8 0 21 32 20-32 8 0z m-152 29l72 0 0 7-72 0z m-196 7l-30-74 8 0 0 0c1 3 19 50 24 62 4-12 22-59 23-62l0 0 8 0-29 74z m196-74l28 0 0 7-28 0z"/>
<glyph glyph-name="menu-close" unicode="&#109;" d="M481 60l-198 198 185 186 16 15-32 32-201-201-188 189-16 15-32-31 205-205-202-202 31-31 16 15 186 187 198-198 16-16 32 32z"/>
<glyph glyph-name="menu-close-hover" unicode="&#110;" d="M484 145l-195 112 192 112 17 9-19 33-17-10-211-122-204 118-16 9-19-33 16-9 185-107-187-107-17-10 19-33 17 10 206 119 214-124 16-10 19 33z"/>
<glyph glyph-name="menu-hover" unicode="&#111;" d="M512 34l0 34-512 0 0-34z m0 205l0 34-512 0 0-34z m0 205l0 34-512 0 0-34z"/>
<glyph glyph-name="paymaxi" unicode="&#112;" d="M47 410l44-134-90 32 148-206-43 127 40-14-25 116c0 0 66-12 59-47-6-30-34-28-34-28 0 0 21-12 51-1 13 5 23 19 26 31 16 67-75 113-176 124z m239-119c0-2 0-5-1-7-1-1-2-3-4-5-1-1-3-2-5-3-2-1-5-1-8-1l-6 0 0-18c0 0 0 0 0 0 0-1 0-1-1-1 0 0 0 0-1 0 0 0 0 0-1 0-1 0-1 0-2 0 0 0 0 0-1 0 0 0 0 0 0 1 0 0 0 0 0 0l0 46c0 1 0 2 0 2 1 1 1 1 2 1l11 0c1 0 2 0 3 0 1 0 2-1 3-1 2 0 3-1 5-2 1 0 2-1 3-3 1-1 2-2 2-4 1-1 1-3 1-5z m-7 0c0 2 0 3-1 5-1 1-2 2-3 3-1 0-2 1-3 1-1 0-3 0-4 0l-6 0 0-20 6 0c2 0 4 1 5 1 2 1 3 1 4 2 0 1 1 2 2 4 0 1 0 2 0 4z m41-34c0 0 0-1 0-1-1 0-1 0-1 0-1 0-1 0-2 0 0 0-1 0-1 0-1 0-1 0-1 0 0 0-1 1-1 1l0 3c-1-1-3-2-5-3-1-1-3-2-6-2-1 0-3 1-4 1-2 1-3 1-4 2-1 1-2 2-3 3 0 2 0 3 0 5 0 2 0 3 1 5 1 1 2 3 3 4 2 0 3 1 6 2 2 0 4 0 7 0l5 0 0 3c0 1-1 3-1 4 0 1-1 1-1 2-1 1-2 1-3 2-1 0-2 0-3 0-2 0-3 0-4 0-2-1-3-1-4-2-1 0-1 0-2-1-1 0-1 0-2 0 0 0 0 0 0 0 0 0 0 0 0 0-1 1-1 1-1 1 0 0 0 1 0 1 0 1 0 1 0 2 0 0 1 0 1 1 0 0 1 1 2 1 1 0 2 1 3 1 1 1 2 1 3 1 1 0 3 1 4 1 3 0 5-1 6-1 2-1 4-2 5-3 1-1 2-2 2-4 1-2 1-3 1-6l0-23z m-6 16l-6 0c-2 0-3 0-4-1-2 0-3 0-4-1 0 0-1-1-1-2-1-1-1-2-1-3 0-2 1-3 2-4 1-1 2-2 4-2 2 0 4 1 5 2 2 0 3 2 5 3l0 8z m32-17l-5-13c0 0 0 0-1-1-1 0-2 0-3 0 0 0-1 0-1 0-1 0-1 0-1 1-1 0-1 0-1 0 0 0 0 1 0 1l5 12c0 0 0 0 0 1-1 0-1 0-1 0l-12 33c0 1-1 1-1 2 0 0 1 0 1 0 0 1 0 1 1 1 0 0 1 0 2 0 0 0 1 0 1 0 1 0 1 0 1 0 1-1 1-1 1-1 0 0 0 0 0-1l10-27 0 0 10 28c0 0 0 0 0 0 1 1 1 1 1 1 1 0 1 0 2 0 1 0 2 0 2 0 1 0 1 0 1-1 0 0 0 0 0 0 0-1 0-1 0-1z m74 1c0 0 0 0 0 0 0-1 0-1 0-1 0 0-1 0-1 0-1 0-1 0-2 0 0 0-1 0-1 0-1 0-1 0-1 0-1 0-1 0-1 1 0 0 0 0 0 0l0 43 0 0-18-43c0 0 0 0 0-1 0 0 0 0-1 0 0 0 0 0-1 0 0 0 0 0-1 0 0 0-1 0-1 0-1 0-1 0-1 0-1 0-1 0-1 0 0 1 0 1 0 1l-17 43 0 0 0-43c0 0 0 0 0-1 0 0 0 0-1 0 0 0 0 0-1 0 0 0-1 0-1 0-1 0-1 0-2 0 0 0-1 0-1 0 0 0 0 0 0 0 0 1-1 1-1 1l0 46c0 1 1 2 1 2 1 1 2 1 2 1l4 0c1 0 2 0 3 0 0-1 1-1 1-1 1-1 1-1 1-2 1 0 1-1 1-1l14-36 1 0 14 36c1 0 1 1 1 2 1 0 1 0 1 1 1 0 1 0 2 1 0 0 1 0 2 0l4 0c0 0 1 0 1 0 0-1 1-1 1-1 0 0 0-1 0-1 1 0 1-1 1-1l0-46z m39 0c0 0 0-1 0-1-1 0-1 0-1 0-1 0-1 0-2 0 0 0-1 0-1 0-1 0-1 0-1 0 0 0 0 1 0 1l0 3c-2-1-4-2-6-3-1-1-3-2-5-2-2 0-4 1-5 1-2 1-3 1-4 2-1 1-2 2-3 3 0 2 0 3 0 5 0 2 0 3 1 5 1 1 2 3 3 4 2 0 4 1 6 2 2 0 4 0 7 0l5 0 0 3c0 1 0 3-1 4 0 1 0 1-1 2-1 1-2 1-3 2-1 0-2 0-3 0-2 0-3 0-4 0-2-1-3-1-4-2-1 0-1 0-2-1-1 0-1 0-1 0-1 0-1 0-1 0 0 0 0 0 0 0-1 1-1 1-1 1 0 0 0 1 0 1 0 1 0 1 0 2 0 0 1 0 1 1 0 0 1 1 2 1 1 0 2 1 3 1 1 1 2 1 3 1 2 0 3 1 4 1 3 0 5-1 7-1 1-1 3-2 4-3 1-1 2-2 2-4 1-2 1-3 1-6l0-23z m-6 16l-6 0c-1 0-3 0-4-1-2 0-3 0-3-1-1 0-2-1-2-2-1-1-1-2-1-3 0-2 1-3 2-4 1-1 3-2 5-2 1 0 3 1 4 2 2 0 3 2 5 3l0 8z m43-15c0-1 0-1 0-1 0 0 0-1 0-1 0 0 0 0-1 0-1 0-1 0-2 0-1 0-1 0-2 0 0 0-1 0-1 0 0 0 0 0 0 0-1 1-1 1-1 1l-8 14-8-14c0 0-1 0-1-1 0 0 0 0 0 0-1 0-1 0-1 0-1 0-1 0-2 0-1 0-1 0-2 0 0 0-1 0-1 0 0 0 0 1 0 1 0 0 0 0 0 1l11 17-10 16c-1 0-1 1-1 1 0 0 0 0 1 0 0 1 0 1 1 1 0 0 1 0 2 0 1 0 1 0 2 0 0 0 0 0 1 0 0 0 0-1 0-1 0 0 0 0 1 0l7-13 8 13c0 0 1 0 1 0 0 0 0 0 0 1 0 0 1 0 1 0 1 0 1 0 2 0 1 0 1 0 2 0 0 0 0 0 1-1 0 0 0 0 0 0 0 0 0-1 0-1l-10-16z m15 45c0-1 0-2-1-3 0 0-1-1-3-1-1 0-2 1-3 1-1 1-1 2-1 3 0 2 0 3 1 3 1 1 2 1 3 1 2 0 3 0 3-1 1 0 1-1 1-3z m-1-46c0 0 0 0 0 0 0-1 0-1 0-1-1 0-1 0-1 0-1 0-1 0-2 0 0 0-1 0-1 0-1 0-1 0-1 0-1 0-1 0-1 1 0 0 0 0 0 0l0 35c0 0 0 0 0 0 0 0 0 0 1 0 0 1 0 1 1 1 0 0 1 0 1 0 1 0 1 0 2 0 0 0 0 0 1-1 0 0 0 0 0 0 0 0 0 0 0 0z"/>
<glyph glyph-name="popel" unicode="&#113;" d="M281 512l-208 0 0-506 107 0 0 196 101 0c57 0 158 47 158 155 0 114-101 155-158 155m-31-218l-70 0 0 126 70 0c0 0 76 4 76-63-1-66-76-63-76-63m185-236c0-32-25-58-58-58-32 0-57 26-57 58 0 32 26 57 57 57 33 1 58-25 58-57"/>
<glyph glyph-name="retry" unicode="&#114;" d="M473 244c0-121-98-220-217-220-119 0-217 99-217 220 0 121 98 219 217 219 64 0 121-28 161-73l-113 0 0-24 145 0 0 146-24 0 0-95c-44 44-103 71-169 71-133 0-241-109-241-244 0-135 108-244 241-244 133 0 241 109 241 244z"/>
<glyph glyph-name="settings" unicode="&#115;" d="M285 3l-59 0c-24 0-45 20-45 44l0 7c-6 2-12 4-18 7l-4-5c-19-17-47-17-64 0l-41 41c-18 18-18 46 0 63l5 5c-3 6-6 11-8 17l-6 0c-12 0-24 5-33 14-8 9-12 20-12 32l0 57c0 24 20 44 45 44l7 0c2 6 4 12 7 18l-5 5c-18 18-18 46 0 63l41 41c18 17 46 17 63 0l5-5c6 3 12 5 18 7l0 7c1 24 21 44 45 44l59 0c25 0 45-20 45-44l0-7c6-2 12-4 18-7l5 5c18 17 46 17 64 0l41-41c18-18 18-46 0-63l-5-5c3-6 5-12 7-18l7 0c25 0 45-20 45-44l0-58c0-24-20-44-45-44l-7 0c-2-6-4-12-7-18l5-5c17-18 17-46 0-63l-42-41c-18-17-46-17-63 0l-5 5c-6-2-12-5-18-7l0-6c0-25-20-45-45-45z m-127 91l9-5c10-5 20-9 32-12l10-3 0-27c0-9 8-17 18-17l58 0c10 0 18 8 18 17l0 27 10 3c11 3 22 8 32 13l9 4 18-18c7-7 18-7 26 0l41 41c7 6 7 17 0 25l-19 18 5 9c5 10 9 21 13 32l3 9 26 0c10 0 18 8 18 18l0 57c0 10-8 17-18 17l-26 0-3 10c-4 11-9 22-14 32l-3 9 18 18c7 7 7 18 0 25l-41 41c-7 7-19 6-26-1l-19-18-8 5c-10 5-21 9-32 12l-10 3 0 27c0 9-8 17-18 17l-59 0c-9 0-17-8-17-17l0-27-10-3c-10-3-20-7-33-13l-8-4-19 18c-7 7-18 7-25 0l-41-40c-7-7-7-18 0-26l19-18-5-9c-5-10-9-20-13-31l-3-10-26 0c-10 0-18-7-18-17l0-58c0-4 1-9 5-12 3-3 8-5 13-5l26 0 3-10c3-10 8-21 13-32l4-8-18-19c-7-6-7-17 0-25l41-40c7-7 18-7 26 0z m98 54c-60 0-109 49-109 108 0 59 49 108 109 108 60 0 109-49 109-108 0-59-49-108-109-108z m0 189c-45 0-82-37-82-81 0-45 37-81 82-81 45 0 82 36 82 81 0 44-37 81-82 81z"/>
<glyph glyph-name="star-pressed" unicode="&#116;" d="M256 96l-158-83 30 176-128 125 177 25 79 160 79-160 177-25-128-125 30-176z"/>
<glyph glyph-name="switch-mode" unicode="&#117;" d="M259 509c-2 0-4 0-6 0-140 0-253-113-253-253 0-140 113-253 253-253 2 0 4 0 6 0l0 0c140 0 253 113 253 253 0 140-114 253-253 253z m-6-475c-122 0-221 99-221 222 0 123 99 222 221 222 2 0 4-1 6-1l0-442c-2 0-4-1-6-1z"/>
<glyph glyph-name="tour" unicode="&#118;" d="M239 184l0 12c0 17 3 31 8 42 6 11 15 23 30 35 20 17 32 29 37 38 5 8 8 18 8 30 0 15-5 27-14 35-10 8-24 12-42 12-11 0-22-1-34-4-11-3-23-8-37-15l-13 30c28 14 56 21 86 21 28 0 50-6 65-20 16-14 23-33 23-58 0-10-1-20-4-28-3-8-7-16-12-23-6-7-18-19-36-35-15-12-25-23-29-31-5-9-7-20-7-34l0-7z m-11-65c0 20 9 30 27 30 8 0 15-3 19-8 5-5 7-12 7-22 0-9-2-17-7-22-5-5-11-7-19-7-8 0-14 2-19 7-5 4-8 12-8 22z m252 137c0 124-100 224-224 224-124 0-224-100-224-224 0-124 100-224 224-224 124 0 224 100 224 224z m-480 0c0 141 115 256 256 256 141 0 256-115 256-256 0-141-115-256-256-256-141 0-256 115-256 256z"/>
<glyph glyph-name="user" unicode="&#119;" d="M324 250c41 24 68 67 68 116 0 75-63 136-139 136-77 0-139-61-139-136 0-50 27-93 68-117-105-31-182-127-182-240l509 0c0 114-78 211-185 241z m-71 210c53 0 96-42 96-94 0-52-43-94-96-94-53 0-96 42-96 94 0 52 43 94 96 94z m2-242c102 0 188-72 208-168l-416 0c20 96 105 168 208 168z"/>
<glyph glyph-name="web" unicode="&#120;" d="M475 37l-438 0 0 438 219 0 0 37-256 0 0-512 512 0 0 256-37 0z m32 475l-141 0 0-37 79 0-270-272 26-26 274 278 0-89 37 0 0 146z"/>
<glyph glyph-name="widget-close" unicode="&#121;" d="M280 260l209 209-25 25-209-209-207 207-25-24 207-208-215-216 25-25 215 216 217-217 25 25z"/>
<glyph glyph-name="arrow-big-left" unicode="&#122;" d="M21 491l-17 0 0 17m20-246l488 0 0-12-488 0z"/>
<glyph glyph-name="check" unicode="&#65;" d="M159 91l21-19 21 19 313 315-40 40-315-315 42 0-161 161-40-42z"/>
<glyph glyph-name="esc" unicode="&#66;" d="M208 261l-174 177-26 25 49 49 26-25 177-177 202 202 49-49-203-202 184-184 26-26-49-48-26 25-183 184-210-209-49 48 26 26z"/>
<glyph glyph-name="exclamation-mark" unicode="&#67;" d="M256 4c23 0 43 19 43 43 0 23-20 43-43 43-23 0-43-20-43-43 0-24 20-43 43-43z m32 476l0 32-64 0 0-341 64 0z"/>
<glyph glyph-name="info" unicode="&#68;" d="M256 512c-23 0-43-19-43-43 0-23 20-42 43-42 23 0 43 19 43 42 0 24-20 43-43 43z m-32-474l0-32 64 0 0 342-64 0z"/>
</font>
</defs>
</svg>
